<svg width="139" height="85" viewBox="0 0 139 85" fill="none" xmlns="http://www.w3.org/2000/svg">
<path d="M14.5536 14.1353V12.1049L31.9593 4.61795V81.1586H31.9612V84.7244H35.6515V3.13232C35.6515 1.41841 33.6067 0.297784 31.8545 1.05145L12.339 9.44594C11.4347 9.83491 10.8614 10.6423 10.8614 11.5268V15.7156L14.5536 14.1353Z" fill="white"/>
<path d="M25.1025 81.1586H25.0926V84.7244H24.9322L10.8621 84.7824V81.1586H10.8614V22.5524L14.5536 20.9721V81.4807H21.4104V16.4353L15.4362 19.005L15.4224 18.9917L9.27906 21.6213L9.3022 21.6435L4.00463 23.9223V81.1586H3.99345V84.8107L0.3125 84.8259V23.3441C0.3125 22.4596 0.885775 21.6522 1.79005 21.2633L10.8614 17.3613V17.3525L14.5536 15.7722V15.7731L15.0053 15.5788L15.8615 15.2123L15.8602 15.2111L21.3056 12.8688C23.0577 12.1151 25.1025 13.2357 25.1025 14.9496V81.1586Z" fill="white"/>
<path d="M53.6237 57.4919L56.9269 42.4856H58.0359V48.7854L55.4641 59.9694H51.7597L47.3474 42.4856H50.5563L53.6237 57.4919ZM66.5301 42.4856H69.739L65.0436 59.9694H61.3628L59.0033 49.2337V42.4856H60.1359L63.2032 57.4919L66.5301 42.4856ZM87.3643 59.875H84.4386L79.932 46.8506L75.3781 59.875H72.4288L78.5163 42.5092H81.3241L87.3643 59.875ZM81.4892 54.3538L82.1735 56.265H77.6668L78.3275 54.3538H81.4892ZM90.2665 42.4856H93.499L97.1562 56.1234V59.9694H95.6697L90.2665 42.4856ZM101.804 42.4856H105.013L99.3505 59.9694H98.1236V55.3684L101.804 42.4856ZM108.623 42.4856H111.502V59.875H108.623V42.4856ZM118.769 52.0415H112.469V50.1067H118.769V52.0415ZM112.469 57.7279H119.501V59.875H112.469V57.7279ZM119.501 42.4856V44.6327H112.469V42.4856H119.501ZM60.0651 65.4856V67.4204H54.8742V82.875H52.0192V67.4204H46.8283V65.4856H60.0651ZM63.0852 74.0977C63.0852 72.6977 63.2504 71.4629 63.5807 70.3933C63.9268 69.3079 64.3987 68.3956 64.9964 67.6563C65.6099 66.9013 66.3256 66.3271 67.1435 65.9339C67.9772 65.5249 68.8817 65.289 69.8569 65.226V67.5855C69.3221 67.6484 68.8188 67.8136 68.3469 68.081C67.875 68.3484 67.466 68.7417 67.1199 69.2608C66.7739 69.7798 66.4986 70.4405 66.2941 71.2427C66.0896 72.045 65.9795 72.9966 65.9638 74.0977C65.9795 75.2145 66.0896 76.1741 66.2941 76.9763C66.4986 77.7628 66.7739 78.4234 67.1199 78.9583C67.4817 79.4931 67.8986 79.902 68.3705 80.1852C68.8424 80.4526 69.3379 80.6099 69.8569 80.6571V82.993C68.8974 82.9301 68.0008 82.702 67.1671 82.3087C66.3334 81.8997 65.6099 81.3256 64.9964 80.5863C64.3987 79.8313 63.9268 78.9111 63.5807 77.8257C63.2504 76.7403 63.0852 75.4977 63.0852 74.0977ZM70.8007 65.226C71.7603 65.2732 72.649 65.5013 73.467 65.9103C74.3006 66.3193 75.0164 66.9013 75.6141 67.6563C76.2276 68.3956 76.7073 69.3079 77.0534 70.3933C77.3994 71.4629 77.5725 72.6977 77.5725 74.0977C77.5725 75.4977 77.3994 76.7403 77.0534 77.8257C76.7073 78.9111 76.2276 79.8313 75.6141 80.5863C75.0164 81.3256 74.3085 81.8997 73.4906 82.3087C72.6726 82.702 71.776 82.9301 70.8007 82.993V80.6571C71.3356 80.5942 71.8389 80.429 72.3108 80.1616C72.7827 79.8785 73.1917 79.4773 73.5377 78.9583C73.8838 78.4234 74.1591 77.7628 74.3636 76.9763C74.5681 76.1741 74.6782 75.2145 74.6939 74.0977C74.6782 72.9809 74.5681 72.0292 74.3636 71.2427C74.1591 70.4405 73.8759 69.7798 73.5141 69.2608C73.1681 68.7259 72.7591 68.3248 72.2872 68.0574C71.8153 67.7743 71.3198 67.6091 70.8007 67.5619V65.226ZM87.3879 80.4919L90.6912 65.4856H91.8002V71.7854L89.2283 82.9694H85.5239L81.1117 65.4856H84.3206L87.3879 80.4919ZM100.294 65.4856H103.503L98.8079 82.9694H95.1271L92.7676 72.2337V65.4856H93.9001L96.9675 80.4919L100.294 65.4856ZM107.42 65.4856H110.299V82.875H107.42V65.4856ZM117.566 75.0415H111.266V73.1067H117.566V75.0415ZM111.266 80.7279H118.297V82.875H111.266V80.7279ZM118.297 65.4856V67.6327H111.266V65.4856H118.297ZM122.12 65.4856H124.951V82.875H122.12V65.4856ZM133.917 82.875H130.92L127.641 76.5752C127.594 76.5752 127.539 76.583 127.476 76.5988C127.428 76.5988 127.35 76.5988 127.24 76.5988C127.13 76.5988 126.964 76.5988 126.744 76.5988C126.54 76.5988 126.264 76.5988 125.918 76.5988V74.5224H127.523C127.869 74.5224 128.215 74.4674 128.561 74.3572C128.907 74.2314 129.222 74.0348 129.505 73.7674C129.788 73.5 130.016 73.1303 130.189 72.6584C130.362 72.1708 130.449 71.5731 130.449 70.8652C130.449 70.5821 130.409 70.2596 130.331 69.8978C130.252 69.5203 130.087 69.1664 129.835 68.836C129.599 68.49 129.261 68.2069 128.821 67.9866C128.38 67.7507 127.798 67.6327 127.075 67.6327H125.918V65.4856H127.122C127.861 65.4856 128.592 65.6035 129.316 65.8395C130.04 66.0754 130.685 66.4294 131.251 66.9013C131.833 67.3732 132.297 67.9473 132.643 68.6237C133.005 69.2843 133.186 70.0315 133.186 70.8652C133.186 72.1236 132.895 73.1932 132.313 74.0741C131.731 74.955 130.944 75.6078 129.953 76.0325L133.917 82.875Z" fill="white"/>
</svg>
