<svg width="84" height="52" viewBox="0 0 84 52" fill="none" xmlns="http://www.w3.org/2000/svg">
<path d="M8.81262 8.83341V7.60331L19.358 3.06728V49.44H19.3592V51.6003H21.5949V2.1672C21.5949 1.12881 20.3561 0.449874 19.2945 0.906489L7.4709 5.99235C6.92304 6.22801 6.57571 6.71715 6.57571 7.25306V9.79086L8.81262 8.83341Z" fill="white"/>
<path d="M15.2038 49.44H15.1978V51.6003H15.1006L6.5761 51.6355V49.44H6.57571V13.933L8.81262 12.9755V49.6351H12.9669V10.2269L9.34739 11.7838L9.33902 11.7757L5.61702 13.3689L5.63104 13.3823L2.42147 14.7629V49.44H2.4147V51.6526L0.18457 51.6618V14.4127C0.18457 13.8768 0.531893 13.3876 1.07975 13.152L6.57571 10.7879V10.7826L8.81262 9.82514V9.82571L9.08629 9.708L9.60506 9.48595L9.60427 9.48519L12.9034 8.0661C13.9649 7.60948 15.2038 8.28842 15.2038 9.3268V49.44Z" fill="white"/>
<path d="M32.4828 34.3804L34.4841 25.2887H35.156V29.1055L33.5978 35.8814H31.3534L28.6803 25.2887H30.6244L32.4828 34.3804ZM40.3022 25.2887H42.2463L39.4016 35.8814H37.1716L35.7421 29.3771V25.2887H36.4282L38.2866 34.3804L40.3022 25.2887ZM52.9248 35.8242H51.1522L48.4218 27.9333L45.6629 35.8242H43.876L47.5641 25.303H49.2652L52.9248 35.8242ZM49.3653 32.4792L49.7799 33.6371H47.0495L47.4498 32.4792H49.3653ZM54.6831 25.2887H56.6415L58.8573 33.5513V35.8814H57.9567L54.6831 25.2887ZM61.6734 25.2887H63.6175L60.1867 35.8814H59.4434V33.0939L61.6734 25.2887ZM65.8047 25.2887H67.5487V35.8242H65.8047V25.2887ZM71.9516 31.0782H68.1348V29.906H71.9516V31.0782ZM68.1348 34.5234H72.3947V35.8242H68.1348V34.5234ZM72.3947 25.2887V26.5896H68.1348V25.2887H72.3947ZM36.3853 39.2887V40.4609H33.2404V49.8242H31.5107V40.4609H28.3658V39.2887H36.3853ZM38.2151 44.5064C38.2151 43.6583 38.3152 42.9101 38.5153 42.2621C38.725 41.6045 39.0109 41.0518 39.373 40.6039C39.7447 40.1464 40.1783 39.7986 40.6739 39.5603C41.179 39.3125 41.7269 39.1696 42.3178 39.1315V40.561C41.9938 40.5991 41.6888 40.6992 41.4029 40.8612C41.117 41.0232 40.8692 41.2614 40.6596 41.5759C40.4499 41.8904 40.2831 42.2907 40.1592 42.7767C40.0354 43.2628 39.9686 43.8393 39.9591 44.5064C39.9686 45.1831 40.0354 45.7644 40.1592 46.2504C40.2831 46.7269 40.4499 47.1272 40.6596 47.4512C40.8788 47.7753 41.1313 48.023 41.4172 48.1946C41.7031 48.3566 42.0033 48.4519 42.3178 48.4805V49.8957C41.7365 49.8576 41.1933 49.7194 40.6882 49.4811C40.1831 49.2334 39.7447 48.8855 39.373 48.4376C39.0109 47.9801 38.725 47.4226 38.5153 46.7651C38.3152 46.1075 38.2151 45.3546 38.2151 44.5064ZM42.8896 39.1315C43.4709 39.1601 44.0094 39.2982 44.505 39.546C45.0101 39.7938 45.4437 40.1464 45.8058 40.6039C46.1775 41.0518 46.4682 41.6045 46.6778 42.2621C46.8875 42.9101 46.9923 43.6583 46.9923 44.5064C46.9923 45.3546 46.8875 46.1075 46.6778 46.7651C46.4682 47.4226 46.1775 47.9801 45.8058 48.4376C45.4437 48.8855 45.0148 49.2334 44.5193 49.4811C44.0237 49.7194 43.4805 49.8576 42.8896 49.8957V48.4805C43.2136 48.4424 43.5186 48.3423 43.8045 48.1803C44.0904 48.0087 44.3382 47.7657 44.5478 47.4512C44.7575 47.1272 44.9243 46.7269 45.0482 46.2504C45.1721 45.7644 45.2388 45.1831 45.2483 44.5064C45.2388 43.8298 45.1721 43.2532 45.0482 42.7767C44.9243 42.2907 44.7527 41.8904 44.5335 41.5759C44.3239 41.2519 44.0761 41.0089 43.7902 40.8469C43.5043 40.6753 43.2041 40.5753 42.8896 40.5467V39.1315ZM52.9391 48.3804L54.9404 39.2887H55.6123V43.1055L54.0541 49.8814H51.8098L49.1366 39.2887H51.0807L52.9391 48.3804ZM60.7585 39.2887H62.7026L59.8579 49.8814H57.6279L56.1984 43.3771V39.2887H56.8845L58.7429 48.3804L60.7585 39.2887ZM65.0756 39.2887H66.8196V49.8242H65.0756V39.2887ZM71.2225 45.0782H67.4057V43.906H71.2225V45.0782ZM67.4057 48.5234H71.6657V49.8242H67.4057V48.5234ZM71.6657 39.2887V40.5896H67.4057V39.2887H71.6657ZM73.9815 39.2887H75.6969V49.8242H73.9815V39.2887ZM81.1291 49.8242H79.3136L77.3266 46.0074C77.298 46.0074 77.2646 46.0122 77.2265 46.0217C77.1979 46.0217 77.1502 46.0217 77.0835 46.0217C77.0168 46.0217 76.9168 46.0217 76.7833 46.0217C76.6594 46.0217 76.4927 46.0217 76.283 46.0217V44.7637H77.2551C77.4647 44.7637 77.6744 44.7304 77.8841 44.6637C78.0937 44.5874 78.2843 44.4683 78.4559 44.3063C78.6274 44.1443 78.7656 43.9203 78.8704 43.6344C78.9753 43.339 79.0277 42.9769 79.0277 42.548C79.0277 42.3765 79.0038 42.1811 78.9562 41.9619C78.9085 41.7332 78.8085 41.5188 78.656 41.3186C78.513 41.109 78.3082 40.9374 78.0413 40.804C77.7745 40.661 77.4219 40.5896 76.9835 40.5896H76.283V39.2887H77.0121C77.46 39.2887 77.9031 39.3602 78.3415 39.5031C78.7799 39.6461 79.1706 39.8605 79.5137 40.1464C79.8663 40.4323 80.1475 40.7802 80.3571 41.19C80.5763 41.5902 80.6859 42.0429 80.6859 42.548C80.6859 43.3104 80.5096 43.9585 80.157 44.4921C79.8044 45.0258 79.3279 45.4213 78.7275 45.6786L81.1291 49.8242Z" fill="white"/>
</svg>
